<mxfile host="app.diagrams.net" modified="2023-07-06T08:48:08.617Z" agent="Mozilla/5.0 (X11; Linux x86_64) AppleWebKit/537.36 (KHTML, like Gecko) Chrome/113.0.0.0 Safari/537.36" version="21.5.2" etag="d7st5w0zG1HzXPRjP1hm" type="github">
  <diagram name="第 1 页" id="jjdv6wEL7LeEyOOx-Ffk">
    <mxGraphModel>
      <root>
        <mxCell id="0" />
        <mxCell id="1" parent="0" />
      </root>
    </mxGraphModel>
  </diagram>
</mxfile>
